<?xml version="1.0" encoding="utf-8"?>
<!-- Generator: Adobe Illustrator 15.1.0, SVG Export Plug-In . SVG Version: 6.00 Build 0)  -->
<!DOCTYPE svg PUBLIC "-//W3C//DTD SVG 1.1//EN" "http://www.w3.org/Graphics/SVG/1.1/DTD/svg11.dtd">
<svg version="1.1" id="Calque_1" xmlns="http://www.w3.org/2000/svg" xmlns:xlink="http://www.w3.org/1999/xlink" x="0px" y="0px"
	 width="151.2px" height="45.312px" viewBox="0 0 151.2 45.312" enable-background="new 0 0 151.2 45.312" xml:space="preserve">
<rect x="112.727" y="31.829" fill-rule="evenodd" clip-rule="evenodd" fill="#1CA9D7" width="4.461" height="13.483"/>
<polygon fill-rule="evenodd" clip-rule="evenodd" fill="#1CA9D7" points="129.472,45.312 136.188,31.829 131.053,31.829 
	126.968,40.03 122.883,31.829 117.748,31.829 124.464,45.312 "/>
<polygon fill-rule="evenodd" clip-rule="evenodd" fill="#1CA9D7" points="137.069,45.312 137.069,31.829 151.2,31.829 151.2,35.743 
	141.531,35.743 141.531,36.613 151.2,36.613 151.2,40.527 141.531,40.527 141.531,41.397 151.2,41.397 151.2,45.312 "/>
<path fill-rule="evenodd" clip-rule="evenodd" fill="#1CA9D7" d="M74.986,31.829h14.069c1.833,0,3.332,1.499,3.332,3.332v6.82
	c0,1.833-1.499,3.332-3.332,3.332H74.986V31.829L74.986,31.829z M79.447,36.613v3.914h7.631c0.466,0,0.847-0.381,0.847-0.847v-2.22
	c0-0.466-0.381-0.847-0.847-0.847H79.447z"/>
<path fill-rule="evenodd" clip-rule="evenodd" fill="#1CA9D7" d="M93.539,31.829h14.069c1.833,0,3.332,1.5,3.332,3.332v2.036
	c0,1.794-1.438,3.269-3.219,3.329l4.573,4.787h-5.375l-3.167-3.315H98v3.315h-4.461V31.829L93.539,31.829z M98,35.743v2.445h7.631
	c0.466,0,0.847-0.381,0.847-0.847V36.59c0-0.465-0.381-0.847-0.847-0.847H98z"/>
<path fill-rule="evenodd" clip-rule="evenodd" fill="#A3D6EE" d="M0,31.829h12.723c1.538,0,2.432,0.703,2.432,2.233v3.466
	c1.468,0,2.029,0.425,2.029,1.623v2.83c0,2.189-1.07,3.332-3.582,3.332H0V31.829L0,31.829z M4.461,35.743v1.785h6.105
	c0.373,0,0.678-0.305,0.678-0.677v-0.43c0-0.372-0.305-0.678-0.678-0.678H4.461L4.461,35.743z M4.461,39.783v1.614h7.583
	c0.372,0,0.678-0.306,0.678-0.677v-0.259c0-0.372-0.305-0.678-0.678-0.678H4.461z"/>
<path fill-rule="evenodd" clip-rule="evenodd" fill="#A3D6EE" d="M41.172,31.829H55.57v3.915H43.672v0.87h9.759
	c1.516,0,2.14,0.748,2.14,2.238v4.499c0,1.078-0.883,1.962-1.962,1.962H39.211v-3.915h11.898v-0.87h-9.954
	c-1.898,0-1.944-1.165-1.944-2.39v-4.347C39.211,32.711,40.094,31.829,41.172,31.829z"/>
<path fill-rule="evenodd" clip-rule="evenodd" fill="#A3D6EE" d="M59.235,31.829h14.398v3.915H61.735v0.87h9.758
	c1.516,0,2.14,0.748,2.14,2.238v4.499c0,1.078-0.884,1.962-1.962,1.962H57.274v-3.915h11.898v-0.87h-9.954
	c-1.898,0-1.944-1.165-1.944-2.39v-4.347C57.274,32.711,58.156,31.829,59.235,31.829z"/>
<path fill-rule="evenodd" clip-rule="evenodd" fill="#A3D6EE" d="M25.48,31.829h4.879l7.296,13.483h-5.072l-1.436-2.654h-6.454
	l-1.436,2.654h-5.073L25.48,31.829L25.48,31.829z M29.454,39.53l-1.535-2.836l-1.535,2.836H29.454z"/>
<path fill="#FFFFFF" d="M0.362,4.463H8.09h0.319v0.319v2.591v0.318H8.09H0.362H0.043V7.373V4.782V4.463H0.362L0.362,4.463z
	 M7.771,5.1H0.68v1.954h7.091V5.1L7.771,5.1z M0.362,26.779H8.09h0.319v0.318v2.591v0.319H8.09H0.362H0.043v-0.319v-2.591v-0.318
	H0.362L0.362,26.779z M7.771,27.417H0.68v1.953h7.091V27.417L7.771,27.417z M8.09,8.926h0.319v0.319v2.591v0.319H8.09H0.362H0.043
	v-0.319v-2.91H8.09L8.09,8.926z M7.771,9.563H0.681v1.954h7.091V9.563L7.771,9.563z M8.09,13.39h0.319v0.318v2.591v0.318H8.09H0.362
	H0.043v-0.318V13.39H8.09L8.09,13.39z M7.771,14.027H0.681v1.953h7.091V14.027L7.771,14.027z M8.09,17.853h0.319v0.318v2.591v0.319
	H8.09H0.362H0.043v-0.319v-2.909H8.09L8.09,17.853z M7.771,18.49H0.681v1.954h7.091V18.49L7.771,18.49z M8.09,22.316h0.319v0.318
	v2.591v0.318H8.09H0.362H0.043v-0.318v-2.909H8.09L8.09,22.316z M7.771,22.953H0.681v1.953h7.091V22.953z"/>
<path fill="#FFFFFF" d="M31.014,4.463h7.728h0.318v0.319v2.591v0.318h-0.318h-7.728h-0.318V7.373V4.782V4.463H31.014L31.014,4.463z
	 M38.423,5.1h-7.09v1.954h7.09V5.1L38.423,5.1z M31.014,26.779h7.728h0.318v0.318v2.591v0.319h-0.318h-7.728h-0.318v-0.319v-2.591
	v-0.318H31.014L31.014,26.779z M38.423,27.417h-7.09v1.953h7.09V27.417L38.423,27.417z M38.742,8.926h0.319v0.319v2.591v0.319
	h-0.319h-7.728h-0.319v-0.319v-2.91H38.742L38.742,8.926z M38.423,9.563h-7.091v1.954h7.091V9.563L38.423,9.563z M38.742,13.39
	h0.319v0.318v2.591v0.318h-0.319h-7.728h-0.319v-0.318V13.39H38.742L38.742,13.39z M38.423,14.027h-7.091v1.953h7.091V14.027
	L38.423,14.027z M38.742,17.853h0.319v0.318v2.591v0.319h-0.319h-7.728h-0.319v-0.319v-2.909H38.742L38.742,17.853z M38.423,18.49
	h-7.091v1.954h7.091V18.49L38.423,18.49z M38.742,22.316h0.319v0.318v2.591v0.318h-0.319h-7.728h-0.319v-0.318v-2.909H38.742
	L38.742,22.316z M38.423,22.953h-7.091v1.953h7.091V22.953z"/>
<path fill="#FFFFFF" d="M91.999,26.779h7.728h0.319v0.318v2.591v0.319h-0.319h-7.728H91.68v-0.319v-2.591v-0.318H91.999
	L91.999,26.779z M99.408,27.417h-7.091v1.953h7.091V27.417z"/>
<path fill="#FFFFFF" d="M10.579,4.463h7.728h0.318v0.319v2.591v0.318h-0.318h-7.728H10.26V7.373V4.782V4.463H10.579L10.579,4.463z
	 M10.579,0h7.728h0.318v0.319v2.59v0.319h-0.318h-7.728H10.26V2.909v-2.59V0H10.579L10.579,0z M17.988,0.637h-7.091v1.954h7.091
	V0.637L17.988,0.637z M17.988,5.1h-7.091v1.954h7.091V5.1L17.988,5.1z M10.579,26.779h7.728h0.318v0.318v2.591v0.319h-0.318h-7.728
	H10.26v-0.319v-2.591v-0.318H10.579L10.579,26.779z M17.988,27.417h-7.091v1.953h7.091V27.417L17.988,27.417z M18.308,8.926h0.318
	v0.319v2.591v0.319h-0.318h-7.729h-0.318v-0.319v-2.91H18.308L18.308,8.926z M17.989,9.563h-7.091v1.954h7.091V9.563L17.989,9.563z
	 M18.308,13.39h0.318v0.318v2.591v0.318h-0.318h-7.729h-0.318v-0.318V13.39H18.308L18.308,13.39z M17.989,14.027h-7.091v1.953h7.091
	V14.027L17.989,14.027z M18.308,17.853h0.318v0.318v2.591v0.319h-0.318h-7.729h-0.318v-0.319v-2.909H18.308L18.308,17.853z
	 M17.989,18.49h-7.091v1.954h7.091V18.49L17.989,18.49z M18.308,22.316h0.318v0.318v2.591v0.318h-0.318h-7.729h-0.318v-0.318v-2.909
	H18.308L18.308,22.316z M17.989,22.953h-7.091v1.953h7.091V22.953z"/>
<path fill="#FFFFFF" d="M41.231,26.779h7.728h0.319v0.318v2.591v0.319h-0.319h-7.728h-0.319v-0.319v-2.591v-0.318H41.231
	L41.231,26.779z M48.64,27.417h-7.091v1.953h7.091V27.417L48.64,27.417z M48.959,8.926h0.319v0.319v2.591v0.319h-0.319h-7.728
	h-0.318v-0.319v-2.91H48.959L48.959,8.926z M48.64,9.563h-7.09v1.954h7.09V9.563L48.64,9.563z M48.959,13.39h0.319v0.318v2.591
	v0.318h-0.319h-7.728h-0.318v-0.318V13.39H48.959L48.959,13.39z M48.64,14.027h-7.09v1.953h7.09V14.027L48.64,14.027z
	 M48.959,17.853h0.319v0.318v2.591v0.319h-0.319h-7.728h-0.318v-0.319v-2.909H48.959L48.959,17.853z M48.64,18.49h-7.09v1.954h7.09
	V18.49L48.64,18.49z M48.959,22.316h0.319v0.318v2.591v0.318h-0.319h-7.728h-0.318v-0.318v-2.909H48.959L48.959,22.316z
	 M48.64,22.953h-7.09v1.953h7.09V22.953z"/>
<path fill="#FFFFFF" d="M102.216,26.779h7.728h0.318v0.318v2.591v0.319h-0.318h-7.728h-0.319v-0.319v-2.591v-0.318H102.216
	L102.216,26.779z M109.625,27.417h-7.091v1.953h7.091V27.417z"/>
<path fill="#FFFFFF" d="M20.796,4.463h7.728h0.318v0.319v2.591v0.318h-0.318h-7.728h-0.318V7.373V4.782V4.463H20.796L20.796,4.463z
	 M20.796,0h7.728h0.318v0.319v2.59v0.319h-0.318h-7.728h-0.318V2.909v-2.59V0H20.796L20.796,0z M28.206,0.637h-7.09v1.954h7.09
	V0.637L28.206,0.637z M28.206,5.1h-7.09v1.954h7.09V5.1L28.206,5.1z M20.796,26.779h7.728h0.318v0.318v2.591v0.319h-0.318h-7.728
	h-0.318v-0.319v-2.591v-0.318H20.796L20.796,26.779z M28.206,27.417h-7.09v1.953h7.09V27.417L28.206,27.417z M28.524,8.926h0.319
	v0.319v2.591v0.319h-0.319h-7.728h-0.318v-0.319v-2.91H28.524L28.524,8.926z M28.206,9.563h-7.091v1.954h7.091V9.563L28.206,9.563z
	 M28.524,13.39h0.319v0.318v2.591v0.318h-0.319h-7.728h-0.318v-0.318V13.39H28.524L28.524,13.39z M28.206,14.027h-7.091v1.953h7.091
	V14.027L28.206,14.027z M28.524,17.853h0.319v0.318v2.591v0.319h-0.319h-7.728h-0.318v-0.319v-2.909H28.524L28.524,17.853z
	 M28.206,18.49h-7.091v1.954h7.091V18.49L28.206,18.49z M28.524,22.316h0.319v0.318v2.591v0.318h-0.319h-7.728h-0.318v-0.318v-2.909
	H28.524L28.524,22.316z M28.206,22.953h-7.091v1.953h7.091V22.953z"/>
<path fill="#FFFFFF" d="M51.448,26.779h7.728h0.318v0.318v2.591v0.319h-0.318h-7.728h-0.319v-0.319v-2.591v-0.318H51.448
	L51.448,26.779z M58.857,27.417h-7.091v1.953h7.091V27.417L58.857,27.417z M59.176,13.39h0.319v0.318v2.591v0.318h-0.319h-7.728
	H51.13v-0.318V13.39H59.176L59.176,13.39z M58.858,14.027h-7.091v1.953h7.091V14.027L58.858,14.027z M59.176,17.853h0.319v0.318
	v2.591v0.319h-0.319h-7.728H51.13v-0.319v-2.909H59.176L59.176,17.853z M58.858,18.49h-7.091v1.954h7.091V18.49L58.858,18.49z
	 M59.176,22.316h0.319v0.318v2.591v0.318h-0.319h-7.728H51.13v-0.318v-2.909H59.176L59.176,22.316z M58.858,22.953h-7.091v1.953
	h7.091V22.953z"/>
<path fill="#FFFFFF" d="M112.433,26.779h7.728h0.318v0.318v2.591v0.319h-0.318h-7.728h-0.318v-0.319v-2.591v-0.318H112.433
	L112.433,26.779z M119.842,27.417h-7.09v1.953h7.09V27.417z"/>
<path fill="#FFFFFF" d="M61.666,26.779h7.728h0.318v0.318v2.591v0.319h-0.318h-7.728h-0.319v-0.319v-2.591v-0.318H61.666
	L61.666,26.779z M69.075,27.417h-7.09v1.953h7.09V27.417L69.075,27.417z M69.394,17.853h0.319v0.318v2.591v0.319h-0.319h-7.728
	h-0.319v-0.319v-2.909H69.394L69.394,17.853z M69.075,18.49h-7.091v1.954h7.091V18.49L69.075,18.49z M69.394,22.316h0.319v0.318
	v2.591v0.318h-0.319h-7.728h-0.319v-0.318v-2.909H69.394L69.394,22.316z M69.075,22.953h-7.091v1.953h7.091V22.953z"/>
<path fill="#FFFFFF" d="M122.65,26.779h7.728h0.318v0.318v2.591v0.319h-0.318h-7.728h-0.319v-0.319v-2.591v-0.318H122.65
	L122.65,26.779z M130.06,27.417h-7.09v1.953h7.09V27.417z"/>
<path fill="#FFFFFF" d="M71.883,26.779h7.728h0.318v0.318v2.591v0.319h-0.318h-7.728h-0.319v-0.319v-2.591v-0.318H71.883
	L71.883,26.779z M79.292,27.417h-7.091v1.953h7.091V27.417L79.292,27.417z M79.611,22.316h0.319v0.318v2.591v0.318h-0.319h-7.728
	h-0.319v-0.318v-2.909H79.611L79.611,22.316z M79.292,22.953h-7.091v1.953h7.091V22.953z"/>
<path fill="#FFFFFF" d="M132.868,26.779h7.728h0.318v0.318v2.591v0.319h-0.318h-7.728h-0.319v-0.319v-2.591v-0.318H132.868
	L132.868,26.779z M140.277,27.417h-7.091v1.953h7.091V27.417L140.277,27.417z M140.596,22.316h0.318v0.318v2.591v0.318h-0.318
	h-7.728h-0.318v-0.318v-2.909H140.596L140.596,22.316z M140.277,22.953h-7.09v1.953h7.09V22.953z"/>
<path fill="#FFFFFF" d="M82.1,26.779h7.728h0.318v0.318v2.591v0.319h-0.318H82.1h-0.319v-0.319v-2.591v-0.318H82.1L82.1,26.779z
	 M89.509,27.417h-7.091v1.953h7.091V27.417z"/>
<path fill="#FFFFFF" d="M143.085,26.779h7.728h0.318v0.318v2.591v0.319h-0.318h-7.728h-0.319v-0.319v-2.591v-0.318H143.085
	L143.085,26.779z M150.494,27.417h-7.091v1.953h7.091V27.417L150.494,27.417z M150.813,17.853h0.319v0.318v2.591v0.319h-0.319
	h-7.728h-0.318v-0.319v-2.909H150.813L150.813,17.853z M150.495,18.49h-7.091v1.954h7.091V18.49L150.495,18.49z M150.813,22.316
	h0.319v0.318v2.591v0.318h-0.319h-7.728h-0.318v-0.318v-2.909H150.813L150.813,22.316z M150.495,22.953h-7.091v1.953h7.091V22.953z"
	/>
</svg>
